<svg width="16" height="16" viewBox="0 0 16 16" fill="none" xmlns="http://www.w3.org/2000/svg">
<path fill-rule="evenodd" clip-rule="evenodd" d="M0 7.91667C0 3.54667 3.53875 0 7.90875 0C12.2867 0 15.8333 3.54667 15.8333 7.91667C15.8333 12.2867 12.2867 15.8333 7.90875 15.8333C3.53875 15.8333 0 12.2867 0 7.91667ZM11.0596 4.75003H13.395C12.635 3.44378 11.4238 2.43045 9.96709 1.9317C10.4421 2.81045 10.8063 3.76045 11.0596 4.75003ZM7.91667 1.61499C8.57376 2.56499 9.08834 3.6179 9.42876 4.74999H6.40459C6.74501 3.6179 7.25959 2.56499 7.91667 1.61499ZM1.58341 7.91667C1.58341 8.46292 1.66258 8.99334 1.78925 9.5H4.46508C4.40175 8.9775 4.35425 8.455 4.35425 7.91667C4.35425 7.37834 4.40175 6.85584 4.46508 6.33334H1.78925C1.66258 6.84 1.58341 7.37042 1.58341 7.91667ZM2.43826 11.0833H4.77368C5.02701 12.0729 5.39118 13.0229 5.86618 13.9017C4.40951 13.4029 3.19826 12.3975 2.43826 11.0833ZM2.43826 4.75003H4.77368C5.02701 3.76045 5.39118 2.81045 5.86618 1.9317C4.40951 2.43045 3.19826 3.43586 2.43826 4.75003ZM7.91667 14.2183C7.25959 13.2683 6.74501 12.2154 6.40459 11.0833H9.42876C9.08834 12.2154 8.57376 13.2683 7.91667 14.2183ZM6.06417 9.5H9.76917C9.84042 8.9775 9.89583 8.455 9.89583 7.91667C9.89583 7.37834 9.84042 6.84792 9.76917 6.33334H6.06417C5.99292 6.84792 5.9375 7.37834 5.9375 7.91667C5.9375 8.455 5.99292 8.9775 6.06417 9.5ZM9.96709 13.9017C10.4421 13.0229 10.8063 12.0729 11.0596 11.0833H13.395C12.635 12.3896 11.4238 13.4029 9.96709 13.9017ZM11.4795 7.91667C11.4795 8.455 11.432 8.9775 11.3686 9.5H14.0445C14.1711 8.99334 14.2503 8.46292 14.2503 7.91667C14.2503 7.37042 14.1711 6.84 14.0445 6.33334H11.3686C11.432 6.85584 11.4795 7.37834 11.4795 7.91667Z" fill="black"/>
</svg>
