<svg width="431" height="342" viewBox="0 0 431 342" fill="none" xmlns="http://www.w3.org/2000/svg">
<path d="M85.8739 342C133.301 342 171.748 338.67 171.748 334.562C171.748 330.454 133.301 327.123 85.8739 327.123C38.4471 327.123 0 330.454 0 334.562C0 338.67 38.4471 342 85.8739 342Z" fill="#E6E6E6"/>
<path d="M65.6406 75.8837C80.5853 68.6342 99.1991 73.2274 117.377 76.4153C117.547 72.5548 119.597 67.8563 117.449 65.163C114.84 61.8908 115.08 58.4527 116.65 54.9948C120.666 46.1524 114.913 36.7436 109.104 28.9203C107.795 27.1609 106.14 25.7786 104.275 24.8855C102.409 23.9925 100.385 23.6139 98.3668 23.7805L87.6068 24.6571C84.9884 24.8703 82.4897 25.9905 80.4448 27.8678C78.3999 29.745 76.9065 32.2897 76.1644 35.1614V35.1614C73.5951 39.1466 72.22 43.1208 73.0857 47.0743C69.2374 50.0738 68.5908 53.6944 70.3201 57.776C71.7865 60.3459 71.7709 62.8475 70.2534 65.2798C68.2605 68.3809 66.7341 71.8387 65.7368 75.5114L65.6406 75.8837Z" fill="#2F2E41"/>
<path d="M420.787 295.654H116.196C113.488 295.654 110.89 294.426 108.975 292.242C107.059 290.058 105.983 287.095 105.983 284.006C216.397 269.371 324.736 269.371 431 284.006C431 287.095 429.924 290.058 428.008 292.242C426.093 294.426 423.495 295.654 420.787 295.654Z" fill="#2F2E41"/>
<path d="M431 284.691L105.983 284.005L143.652 211.719L143.832 211.377V52.0665C143.832 50.1328 144.166 48.218 144.814 46.4315C145.463 44.645 146.414 43.0217 147.613 41.6544C148.812 40.287 150.235 39.2025 151.802 38.4625C153.368 37.7226 155.047 37.3419 156.742 37.342H378.438C380.134 37.3419 381.813 37.7226 383.379 38.4625C384.946 39.2025 386.369 40.287 387.568 41.6544C388.767 43.0217 389.718 44.645 390.367 46.4315C391.015 48.218 391.349 50.1328 391.349 52.0665V212.473L431 284.691Z" fill="#3F3D56"/>
<path d="M156.449 47.6196C155.334 47.6211 154.265 48.1268 153.476 49.026C152.688 49.9252 152.244 51.1443 152.243 52.4159V197.673C152.244 198.945 152.688 200.164 153.476 201.063C154.265 201.962 155.334 202.468 156.449 202.469H380.536C381.651 202.468 382.719 201.962 383.508 201.063C384.296 200.164 384.74 198.945 384.741 197.673V52.4159C384.74 51.1443 384.296 49.9252 383.508 49.0261C382.719 48.1269 381.651 47.6211 380.536 47.6196H156.449Z" fill="white"/>
<path d="M157.388 221.655C157.043 221.655 156.706 221.768 156.416 221.98C156.126 222.192 155.895 222.494 155.75 222.851L144.144 251.628C144.017 251.942 143.962 252.286 143.983 252.63C144.004 252.974 144.1 253.306 144.263 253.596C144.426 253.887 144.651 254.125 144.916 254.291C145.181 254.456 145.478 254.543 145.781 254.543H389.865C390.172 254.543 390.474 254.453 390.742 254.283C391.011 254.112 391.236 253.866 391.398 253.568C391.559 253.27 391.651 252.93 391.665 252.58C391.679 252.23 391.614 251.881 391.476 251.568L378.86 222.791C378.711 222.449 378.482 222.161 378.197 221.96C377.912 221.759 377.583 221.653 377.249 221.655H157.388Z" fill="#2F2E41"/>
<path d="M267.591 45.2215C269.084 45.2215 270.295 43.8411 270.295 42.1382C270.295 40.4354 269.084 39.0549 267.591 39.0549C266.098 39.0549 264.888 40.4354 264.888 42.1382C264.888 43.8411 266.098 45.2215 267.591 45.2215Z" fill="white"/>
<path d="M243.599 260.024C243.203 260.025 242.818 260.174 242.504 260.449C242.189 260.724 241.963 261.109 241.859 261.545L238.948 273.879C238.876 274.183 238.866 274.503 238.92 274.812C238.974 275.122 239.089 275.413 239.257 275.663C239.426 275.914 239.642 276.117 239.89 276.256C240.138 276.396 240.411 276.469 240.688 276.469H296.057C296.344 276.469 296.628 276.39 296.883 276.24C297.138 276.09 297.358 275.872 297.525 275.605C297.692 275.338 297.8 275.03 297.841 274.705C297.882 274.381 297.854 274.05 297.76 273.741L294.017 261.407C293.894 261.004 293.664 260.654 293.359 260.406C293.053 260.158 292.688 260.025 292.313 260.024H243.599Z" fill="#2F2E41"/>
<path d="M391.349 208.979V211.719H143.651L143.838 211.377V208.979H391.349Z" fill="#2F2E41"/>
<path d="M384.441 95.9247C407.666 95.9247 426.494 74.4512 426.494 47.9623C426.494 21.4735 407.666 0 384.441 0C361.215 0 342.387 21.4735 342.387 47.9623C342.387 74.4512 361.215 95.9247 384.441 95.9247Z" fill="#87ABCA"/>
<path d="M401.863 68.8603H367.018C366.381 68.8596 365.77 68.5706 365.32 68.0568C364.869 67.5429 364.616 66.8462 364.615 66.1196V42.1384C364.616 41.4118 364.869 40.7151 365.32 40.2013C365.77 39.6875 366.381 39.3985 367.018 39.3977H401.863C402.5 39.3985 403.111 39.6875 403.561 40.2013C404.012 40.7151 404.265 41.4118 404.266 42.1384V66.1196C404.265 66.8462 404.012 67.5429 403.561 68.0568C403.111 68.5706 402.5 68.8596 401.863 68.8603ZM367.018 42.1384V66.1196H401.865L401.863 42.1384L367.018 42.1384Z" fill="white"/>
<path d="M395.255 42.1383H373.627V31.1755C373.627 23.235 378.175 17.4719 384.441 17.4719C390.707 17.4719 395.255 23.235 395.255 31.1755L395.255 42.1383ZM376.03 39.3976H392.852V31.1755C392.852 24.7208 389.393 20.2126 384.441 20.2126C379.489 20.2126 376.03 24.7208 376.03 31.1755L376.03 39.3976Z" fill="white"/>
<path d="M384.44 56.1845C385.767 56.1845 386.843 54.9575 386.843 53.4438C386.843 51.9302 385.767 50.7031 384.44 50.7031C383.113 50.7031 382.037 51.9302 382.037 53.4438C382.037 54.9575 383.113 56.1845 384.44 56.1845Z" fill="white"/>
<path d="M355.083 153.2H181.9C181.05 153.199 180.235 152.813 179.634 152.127C179.033 151.442 178.694 150.512 178.693 149.542V100.547C178.694 99.5776 179.033 98.6479 179.634 97.9622C180.235 97.2765 181.05 96.8908 181.9 96.8896H355.083C355.933 96.8908 356.748 97.2765 357.35 97.9622C357.951 98.6479 358.289 99.5776 358.29 100.547V149.542C358.289 150.512 357.951 151.442 357.35 152.127C356.748 152.813 355.933 153.199 355.083 153.2V153.2ZM181.9 98.3527C181.39 98.3534 180.901 98.5848 180.54 98.9962C180.18 99.4077 179.977 99.9655 179.976 100.547V149.542C179.977 150.124 180.18 150.682 180.54 151.093C180.901 151.505 181.39 151.736 181.9 151.737H355.083C355.593 151.736 356.082 151.505 356.443 151.093C356.804 150.682 357.007 150.124 357.007 149.542V100.547C357.007 99.9655 356.804 99.4076 356.443 98.9962C356.082 98.5848 355.593 98.3533 355.083 98.3527L181.9 98.3527Z" fill="#E6E6E6"/>
<path d="M208.81 138.064C216.025 138.064 221.874 131.393 221.874 123.165C221.874 114.936 216.025 108.265 208.81 108.265C201.595 108.265 195.746 114.936 195.746 123.165C195.746 131.393 201.595 138.064 208.81 138.064Z" fill="#E6E6E6"/>
<path d="M238.982 113.232C238.695 113.231 238.412 113.295 238.147 113.42C237.883 113.544 237.642 113.727 237.44 113.958C237.237 114.188 237.076 114.462 236.967 114.764C236.857 115.065 236.801 115.388 236.801 115.715C236.801 116.041 236.857 116.365 236.967 116.666C237.076 116.968 237.237 117.242 237.44 117.472C237.642 117.703 237.883 117.886 238.147 118.01C238.412 118.135 238.695 118.199 238.982 118.198H341.627C342.204 118.198 342.758 117.937 343.166 117.471C343.575 117.005 343.804 116.374 343.804 115.715C343.804 115.056 343.575 114.425 343.166 113.959C342.758 113.493 342.204 113.232 341.627 113.232H238.982Z" fill="#E6E6E6"/>
<path d="M238.981 128.131C238.404 128.131 237.85 128.393 237.441 128.858C237.033 129.324 236.804 129.956 236.804 130.614C236.804 131.273 237.033 131.905 237.441 132.37C237.85 132.836 238.404 133.098 238.981 133.098H283.15C283.727 133.098 284.281 132.836 284.689 132.37C285.097 131.905 285.327 131.273 285.327 130.614C285.327 129.956 285.097 129.324 284.689 128.858C284.281 128.393 283.727 128.131 283.15 128.131H238.981Z" fill="#E6E6E6"/>
<path d="M143.226 129.136L111.212 148.547L110.807 132.371C121.256 130.382 131.197 126.918 140.389 121.279L143.738 111.844C144.102 110.816 144.695 109.914 145.458 109.226C146.221 108.539 147.128 108.089 148.089 107.922C149.05 107.754 150.033 107.875 150.941 108.272C151.849 108.668 152.651 109.327 153.269 110.184V110.184C154.172 111.438 154.623 113.037 154.532 114.656C154.44 116.275 153.812 117.794 152.775 118.905L143.226 129.136Z" fill="#FFB8B8"/>
<path d="M65.0028 241.211C64.7692 240.234 64.7197 239.211 64.8573 238.211C64.9949 237.211 65.3167 236.255 65.8014 235.407L72.834 223.097C74.4973 220.186 77.0496 218.083 79.9957 217.197C82.9418 216.31 86.0715 216.703 88.7777 218.3V218.3C85.8221 224.038 86.2341 229.071 89.7984 233.446C84.2653 236.526 79.1513 240.503 74.615 245.251C73.7869 245.895 72.8358 246.304 71.8411 246.444C70.8463 246.583 69.8367 246.45 68.8963 246.055C67.9558 245.66 67.1119 245.014 66.4346 244.171C65.7574 243.328 65.2665 242.313 65.0028 241.211V241.211Z" fill="#2F2E41"/>
<path d="M144.684 225.116C143.62 227.139 142.118 228.816 140.322 229.986C138.526 231.156 136.496 231.78 134.428 231.798L87.7078 232.201L85.6816 218.798L106.349 211.865L88.9236 196.614L107.97 171.194L142.564 207.967C144.586 210.116 145.9 212.992 146.286 216.114C146.672 219.235 146.106 222.413 144.684 225.116V225.116Z" fill="#2F2E41"/>
<path d="M80.4132 316.78H69.4716C59.6477 239.98 49.6479 162.965 79.1975 134.22L114.048 140.69L109.591 174.429L90.139 199.849L80.4132 316.78Z" fill="#2F2E41"/>
<path d="M90.0317 334.177C89.1752 334.444 88.2789 334.5 87.4018 334.343C86.5247 334.187 85.6866 333.82 84.9428 333.267L73.0625 331.446C70.5097 329.549 68.6657 326.638 67.8882 323.278C67.1108 319.918 67.4555 316.349 68.8553 313.262C73.8864 316.633 78.2998 316.163 82.135 312.097C84.8449 318.338 89.3098 317.957 93.5739 323.214C94.1386 324.159 94.4971 325.244 94.6198 326.378C94.7424 327.513 94.6256 328.664 94.279 329.737C93.9325 330.809 93.3662 331.772 92.6274 332.544C91.8886 333.317 90.9987 333.877 90.0317 334.177V334.177Z" fill="#2F2E41"/>
<path d="M106.349 82.9179L86.0869 77.3717C89.4521 69.5156 89.7292 60.774 88.1131 51.4898L101.891 51.0276C102.323 62.5728 103.629 73.359 106.349 82.9179Z" fill="#FFB8B8"/>
<path d="M111.917 154.606C97.1672 166.069 86.7452 154.998 78.7921 137.917C79.8972 127.465 78.1078 114.957 74.7936 101.366C73.3197 95.3712 73.87 88.9642 76.3358 83.4098C78.8016 77.8553 83.0038 73.557 88.1126 71.3635V71.3635L105.538 79.6827C120.334 93.4378 123.247 108.337 117.695 124.052L111.917 154.606Z" fill="#445768"/>
<path d="M69.4712 94.4722L53.2615 104.178L82.0337 123.589L86.0371 134.852C86.3043 135.604 86.4345 136.41 86.4197 137.221C86.4049 138.032 86.2454 138.831 85.951 139.569C85.6566 140.307 85.2334 140.97 84.7073 141.516C84.1811 142.061 83.563 142.479 82.8906 142.744V142.744C82.1263 143.044 81.3114 143.139 80.5096 143.02C79.7079 142.902 78.9411 142.573 78.2693 142.06C77.5975 141.547 77.0389 140.864 76.6374 140.063C76.2358 139.263 76.0021 138.368 75.9547 137.447L75.5498 129.598L38.9807 115.834C37.7486 115.371 36.6252 114.593 35.6955 113.561C34.7658 112.529 34.0543 111.269 33.6148 109.877V109.877C32.9742 107.847 32.9416 105.633 33.5221 103.58C34.1026 101.527 35.2634 99.7516 36.823 98.5314L66.2292 75.5229L69.4712 94.4722Z" fill="#FFB8B8"/>
<path d="M85.6809 96.3211C78.9205 92.9422 72.773 96.6127 65.0136 99.5564L63.7979 75.061C71.5027 70.3774 78.8487 69.1147 85.6809 72.7501L85.6809 96.3211Z" fill="#3C576F"/>
<path d="M93.7686 63.1611C100.913 63.1611 106.705 56.5554 106.705 48.407C106.705 40.2585 100.913 33.6528 93.7686 33.6528C86.6239 33.6528 80.832 40.2585 80.832 48.407C80.832 56.5554 86.6239 63.1611 93.7686 63.1611Z" fill="#FFB8B8"/>
<path d="M109.244 46.5454C96.4359 47.9761 86.6761 45.587 80.4385 38.7846V33.3064H108.157L109.244 46.5454Z" fill="#2F2E41"/>
</svg>
